# Blender v2.93.5 OBJ File: ''
# www.blender.org
mtllib Turtle.mtl
o Cube
v 1.000000 0.375000 -1.000000
v 1.000000 -0.625000 -1.000000
v 0.500000 -0.625000 0.500000
v -1.000000 0.375000 -1.000000
v -1.000000 -0.625000 -1.000000
v -0.500000 -0.625000 0.500000
v 0.000000 -0.375000 -0.500000
v 0.000000 0.375000 0.000000
v 0.000000 -0.625000 1.000000
v 0.000000 -0.125000 0.000000
vt 0.750000 0.500000
vt 0.875000 0.750000
vt 0.750000 0.750000
vt 0.375000 0.875000
vt 0.625000 0.875000
vt 0.625000 1.000000
vt 0.375000 1.000000
vt 0.375000 0.000000
vt 0.625000 0.250000
vt 0.375000 0.250000
vt 0.250000 0.500000
vt 0.375000 0.500000
vt 0.375000 0.750000
vt 0.250000 0.750000
vt 0.625000 0.750000
vt 0.375000 0.375000
vt 0.625000 0.375000
vt 0.625000 0.500000
vt 0.125000 0.500000
vt 0.125000 0.750000
vn 0.7071 0.0000 -0.7071
vn -0.5774 0.5774 0.5774
vn -0.9487 0.0000 0.3162
vn -0.2408 -0.9631 -0.1204
vn 0.9487 0.0000 0.3162
vn -0.5963 0.2981 -0.7454
vn 0.5963 0.2981 -0.7454
vn 0.2408 -0.9631 -0.1204
vn 0.5774 0.5774 0.5774
vn -0.7071 0.0000 -0.7071
usemtl Material
s off
f 10/1/1 4/2/1 8/3/1
f 9/4/2 8/5/2 4/6/2 6/7/2
f 6/8/3 4/9/3 5/10/3
f 7/11/4 2/12/4 3/13/4 9/14/4
f 2/12/5 1/15/5 3/13/5
f 7/16/6 10/17/6 1/18/6 2/12/6
f 5/10/7 4/9/7 10/17/7 7/16/7
f 5/19/8 7/11/8 9/14/8 6/20/8
f 3/13/9 1/15/9 8/5/9 9/4/9
f 1/18/10 10/1/10 8/3/10
